<svg xmlns="http://www.w3.org/2000/svg" width="512" height="512" viewBox="0 0 512 512" role="img" aria-labelledby="title desc">
  <title id="title">CV Maker favicon</title>
  <desc id="desc">Document and ink pen icon for CV Maker.</desc>
  <defs>
    <linearGradient id="markGradient" x1="64" y1="52" x2="448" y2="460" gradientUnits="userSpaceOnUse">
      <stop offset="0" stop-color="#2563eb"/>
      <stop offset="0.55" stop-color="#4f46e5"/>
      <stop offset="1" stop-color="#0f766e"/>
    </linearGradient>
    <linearGradient id="penGradient" x1="216" y1="356" x2="392" y2="184" gradientUnits="userSpaceOnUse">
      <stop offset="0" stop-color="#14b8a6"/>
      <stop offset="1" stop-color="#2563eb"/>
    </linearGradient>
  </defs>
  <rect x="48" y="48" width="416" height="416" rx="104" fill="url(#markGradient)"/>
  <path d="M176 112h138l76 76v180a36 36 0 0 1-36 36H176a36 36 0 0 1-36-36V148a36 36 0 0 1 36-36Z" fill="#fff"/>
  <path d="M314 114v54a24 24 0 0 0 24 24h52" fill="#dbeafe"/>
  <path d="M200 232h104M200 286h74M200 340h48" stroke="#1e3a8a" stroke-width="24" stroke-linecap="round" opacity="0.78"/>
  <path d="M305 346 389 262a29 29 0 0 0 0-41l-8-8a29 29 0 0 0-41 0l-84 84-22 72 71-23Z" fill="url(#penGradient)"/>
  <path d="M332 218 384 270" stroke="#fff" stroke-width="18" stroke-linecap="round" opacity="0.8"/>
</svg>
